<svg width="145" height="145" viewBox="0 0 145 145" fill="none" xmlns="http://www.w3.org/2000/svg">
<circle cx="72.5" cy="72.5" r="72.5" fill="white"/>
<path opacity="0.8" d="M74.4221 74.3549C73.6561 73.5239 72.3441 73.5239 71.5791 74.3549L66.3511 80.0319C64.6401 81.8899 65.9571 84.8949 68.4831 84.8949H77.5171C80.0431 84.8949 81.3601 81.8899 79.6491 80.0319L74.4221 74.3549Z" fill="#216E7A"/>
<path opacity="0.8" d="M82 75.895C83.657 75.895 85 74.552 85 72.895C85 71.238 83.657 69.895 82 69.895C80.343 69.895 79 71.238 79 72.895C79 74.552 80.343 75.895 82 75.895Z" fill="#216E7A"/>
<path opacity="0.8" d="M64 75.895C65.657 75.895 67 74.552 67 72.895C67 71.238 65.657 69.895 64 69.895C62.343 69.895 61 71.238 61 72.895C61 74.552 62.343 75.895 64 75.895Z" fill="#216E7A"/>
<path opacity="0.8" d="M73 71.895C74.657 71.895 76 70.552 76 68.895C76 67.238 74.657 65.895 73 65.895C71.343 65.895 70 67.238 70 68.895C70 70.552 71.343 71.895 73 71.895Z" fill="#216E7A"/>
<path d="M86 49C80.2 49 75.078 52.86 73 58.398C70.922 52.86 65.8 49 60 49C52.28 49 46 55.674 46 63.877C46 79.896 59.418 90.642 67.417 95.622C69.139 96.694 71.069 97.23 73 97.23C74.931 97.23 76.861 96.694 78.583 95.622C86.582 90.642 100 79.896 100 63.877C100 55.674 93.72 49 86 49ZM77.526 93.925C74.734 95.663 71.266 95.661 68.474 93.925C60.828 89.164 48 78.929 48 63.877C48 56.776 53.383 51 60 51C65.917 51 71.017 55.741 71.861 62.027L71.978 62.895H74.022L74.139 62.028C74.983 55.742 80.083 51 86 51C92.617 51 98 56.776 98 63.877C98 78.929 85.172 89.164 77.526 93.925Z" fill="#216E7A"/>
<path d="M87 53.895V55.895C90.309 55.895 93 58.586 93 61.895H95C95 57.484 91.411 53.895 87 53.895Z" fill="#216E7A"/>
<path d="M87 57.895V59.895C88.103 59.895 89 60.792 89 61.895H91C91 59.689 89.206 57.895 87 57.895Z" fill="#216E7A"/>
</svg>
