<svg width="145" height="145" viewBox="0 0 145 145" fill="none" xmlns="http://www.w3.org/2000/svg">
<path d="M72.5 145C112.541 145 145 112.541 145 72.5C145 32.4594 112.541 0 72.5 0C32.4594 0 0 32.4594 0 72.5C0 112.541 32.4594 145 72.5 145Z" fill="white"/>
<path opacity="0.8" d="M49 70H55V89H49V70Z" fill="#216E7A"/>
<path d="M97.427 77.815C96.49 77.122 95.239 76.92 93.992 77.265L78.703 81.492C78.891 81.028 79 80.523 79 79.991C79 77.79 77.206 76 75 76H65.623C64.957 75 63.261 72 61 72H57V71C57 69.346 55.654 68 54 68H50C48.346 68 47 69.346 47 71V88C47 89.654 48.346 91 50 91H54C55.654 91 57 89.655 57 88V87.248L69.139 95.45C70.663 96.482 72.437 97 74.214 97C75.856 97 77.501 96.558 78.956 95.669L97.129 84.568C98.283 83.865 99 82.587 99 81.235V80.922C99 79.691 98.427 78.559 97.427 77.815ZM55 88C55 88.552 54.551 89 54 89H53V85H51V89H50C49.449 89 49 88.552 49 88V71C49 70.448 49.449 70 50 70H54C54.551 70 55 70.449 55 71V88ZM97 81.235C97 81.895 96.65 82.518 96.087 82.862L77.914 93.962C75.549 95.405 72.545 95.34 70.26 93.793L57 84.835V74H61C62.059 74 63.469 76.034 64.088 77.409L64.354 78H75C76.103 78 77 78.893 77 79.99C77 81.098 76.103 82 75 82H65V84H75H77L94.524 79.193C95.165 79.015 95.804 79.1 96.234 79.422C96.721 79.783 97 80.33 97 80.922V81.235Z" fill="#216E7A"/>
<path d="M80 71C82.631 71 93 64.441 93 56C93 52.141 89.86 49 86 49C83.457 49 81.226 50.363 80 52.397C78.774 50.363 76.543 49 74 49C70.14 49 67 52.141 67 56C67 64.441 77.369 71 80 71ZM74 51C76.757 51 79 53 79 56H81C81 53 83.243 51 86 51C88.757 51 91 53.243 91 56C91 63.563 81.321 69 80 69C78.679 69 69 63.563 69 56C69 53.243 71.243 51 74 51Z" fill="#216E7A"/>
</svg>
