<svg width="145" height="145" viewBox="0 0 145 145" fill="none" xmlns="http://www.w3.org/2000/svg">
<path d="M72.5 145C112.541 145 145 112.541 145 72.5C145 32.4594 112.541 0 72.5 0C32.4594 0 0 32.4594 0 72.5C0 112.541 32.4594 145 72.5 145Z" fill="white"/>
<path d="M62 53C59.0898 53 56.6094 55.0703 56.1562 57.875C56.1445 57.9414 56.1016 57.9961 56.0938 58.0625H56.125C56.0898 58.2148 56.0508 58.3555 56.0312 58.5C55.7266 58.7109 55.4336 58.9375 55.1875 59.1875C54.0117 60.375 53.5156 61.8672 53.1562 63.0938C53.1523 63.1016 53.1602 63.1172 53.1562 63.125C51.8594 67.1133 49.5352 76.5547 49 78.7188C48.375 80.0234 48 81.4609 48 83C48 88.5117 52.4883 93 58 93C63.3867 93 67.7695 88.7148 67.9688 83.375C69.1016 84.2109 70.7422 85 73 85C75.2578 85 76.8984 84.2109 78.0312 83.375C78.2305 88.7148 82.6133 93 88 93C93.5117 93 98 88.5117 98 83C98 81.8711 97.8164 80.793 97.4688 79.7812C97.3047 79.125 94.3516 67.3906 93.0625 63.125V63.0938C92.6562 61.875 92.1172 60.3828 90.9375 59.1875C90.6445 58.8906 90.3125 58.6172 89.9375 58.375C89.918 58.2695 89.9023 58.1719 89.875 58.0625H89.9062C89.8984 57.9961 89.8555 57.9414 89.8438 57.875C89.3906 55.0703 86.9102 53 84 53C80.6758 53 78 55.6758 78 59C78 59.7344 78.1211 60.4453 78.3438 61.0938C77.8789 61.6328 77.4883 62.1211 77.2188 62.375C77.1055 62.4805 77.0977 62.4766 77.0625 62.5C75.9258 61.6641 74.5547 61.0938 73.0938 61.0938C71.6367 61.0938 70.2031 61.6172 69.0938 62.5C69.0547 62.4766 69.0508 62.4805 68.9375 62.375C68.6445 62.1016 68.2031 61.5664 67.6875 60.9688C67.8867 60.3516 68 59.6914 68 59C68 55.6758 65.3242 53 62 53ZM62 55C64.2773 55 66 56.7227 66 59C66 59.0859 65.9727 59.1641 65.9688 59.25C64.6992 58.1602 63.0664 57.1875 60.9062 57.1875C59.9375 57.1875 59.0703 57.2812 58.3125 57.4688C58.8633 56.0156 60.293 55 62 55ZM84 55C85.6914 55 87.0938 56.0039 87.6562 57.4375C86.957 57.2773 86.1875 57.1875 85.3125 57.1875C83.0703 57.1875 81.3359 58.2305 80.0312 59.375C80.0195 59.2461 80 59.125 80 59C80 56.7227 81.7227 55 84 55ZM60.9062 59.1875C62.9023 59.1875 64.2812 60.2617 65.4375 61.4688C65.4492 61.9727 65.8398 62.3906 66.3438 62.4375C66.7695 62.9336 67.1758 63.4219 67.5938 63.8125C67.8789 64.0781 68.168 64.332 68.625 64.4688C69.082 64.6055 69.7305 64.5039 70.125 64.1875L70.1562 64.1562C70.8242 63.5625 72.0508 63.0938 73.0938 63.0938C74.1367 63.0938 75.2344 63.5234 76.0625 64.1875V64.1562H76.0938C76.4805 64.4727 77.1172 64.6055 77.5625 64.4688C78.0195 64.3281 78.2812 64.0781 78.5625 63.8125C78.9844 63.4141 79.4023 62.9141 79.8438 62.4062C80.1914 62.3008 80.457 62.0117 80.5312 61.6562C81.7383 60.3711 83.207 59.1875 85.3125 59.1875C86.6289 59.1875 87.5664 59.3867 88.2812 59.7188C88.4023 59.8398 88.5547 59.9258 88.7188 59.9688C88.75 59.9805 88.7812 59.9922 88.8125 60C89.082 60.1758 89.3242 60.3828 89.5312 60.5938C90.3203 61.3945 90.7656 62.5156 91.1562 63.6875C91.1602 63.6953 91.1523 63.7109 91.1562 63.7188C91.9258 66.2695 93.207 71.1172 94.25 75.1875C92.5352 73.8086 90.3633 73 88 73C83.4688 73 79.6289 76.043 78.4062 80.1875C78.332 80.25 78.2695 80.3242 78.2188 80.4062C78.2188 80.4062 76.9297 83 73 83C69.0703 83 67.7812 80.4062 67.7812 80.4062C67.7305 80.3125 67.668 80.2305 67.5938 80.1562C66.3633 76.0273 62.5234 73 58 73C55.7344 73 53.6484 73.7578 51.9688 75.0312C53.0039 70.9688 54.2578 66.1953 55.0625 63.7188V63.6875C55.4023 62.5234 55.8047 61.3945 56.5938 60.5938C57.3828 59.793 58.5938 59.1875 60.9062 59.1875ZM73 73C70.8008 73 69 74.8008 69 77C69 79.1992 70.8008 81 73 81C75.1992 81 77 79.1992 77 77C77 74.8008 75.1992 73 73 73ZM58 75C62.4297 75 66 78.5703 66 83C66 87.4297 62.4297 91 58 91C53.5703 91 50 87.4297 50 83C50 82.3984 50.0625 81.8125 50.1875 81.25C50.3867 81.0977 50.5195 80.875 50.5625 80.625C50.5625 80.625 50.8242 79.5469 50.875 79.3438C52.1992 76.7617 54.8906 75 58 75ZM73 75C74.1172 75 75 75.8828 75 77C75 78.1172 74.1172 79 73 79C71.8828 79 71 78.1172 71 77C71 75.8828 71.8828 75 73 75ZM88 75C91.4844 75 94.4297 77.2148 95.5312 80.3125C95.5352 80.3281 95.625 80.6562 95.625 80.6562C95.6523 80.7578 95.6953 80.8516 95.75 80.9375C95.9258 81.5938 96 82.2852 96 83C96 87.4297 92.4297 91 88 91C83.5703 91 80 87.4297 80 83C80 78.5703 83.5703 75 88 75ZM52.9062 81.9688C52.8633 81.9766 52.8203 81.9883 52.7812 82C52.3164 82.1055 51.9883 82.5234 52 83C52 86.3242 54.6758 89 58 89C58.3594 89.0039 58.6953 88.8164 58.8789 88.5039C59.0586 88.1914 59.0586 87.8086 58.8789 87.4961C58.6953 87.1836 58.3594 86.9961 58 87C55.7227 87 54 85.2773 54 83C54.0117 82.7109 53.8945 82.4336 53.6875 82.2383C53.4766 82.0391 53.1914 81.9414 52.9062 81.9688ZM83.9062 81.9688C83.8633 81.9766 83.8203 81.9883 83.7812 82C83.3164 82.1055 82.9883 82.5234 83 83C83 86.3242 85.6758 89 89 89C89.3594 89.0039 89.6953 88.8164 89.8789 88.5039C90.0586 88.1914 90.0586 87.8086 89.8789 87.4961C89.6953 87.1836 89.3594 86.9961 89 87C86.7227 87 85 85.2773 85 83C85.0117 82.7109 84.8945 82.4336 84.6875 82.2383C84.4766 82.0391 84.1914 81.9414 83.9062 81.9688Z" fill="#216E7A"/>
<circle opacity="0.8" cx="58" cy="83" r="8" fill="#216E7A"/>
<circle opacity="0.8" cx="88" cy="83" r="8" fill="#216E7A"/>
<path d="M53.9819 82.8108C53.8774 82.2685 53.3531 81.9136 52.8108 82.0181C52.2685 82.1226 51.9136 82.6469 52.0181 83.1892L53.9819 82.8108ZM57.8812 88.9929C58.4295 89.0585 58.9273 88.6672 58.9929 88.1188C59.0585 87.5705 58.6672 87.0727 58.1188 87.0071L57.8812 88.9929ZM52.0181 83.1892C52.36 84.9638 52.8371 86.3689 53.8143 87.358C54.8113 88.3671 56.1706 88.7882 57.8812 88.9929L58.1188 87.0071C56.5622 86.8208 55.7561 86.4777 55.237 85.9524C54.6983 85.4071 54.3089 84.5077 53.9819 82.8108L52.0181 83.1892Z" fill="white"/>
<path d="M83.9819 82.8108C83.8774 82.2685 83.3531 81.9136 82.8108 82.0181C82.2685 82.1226 81.9136 82.6469 82.0181 83.1892L83.9819 82.8108ZM87.8812 88.9929C88.4295 89.0585 88.9273 88.6672 88.9929 88.1188C89.0585 87.5705 88.6672 87.0727 88.1188 87.0071L87.8812 88.9929ZM82.0181 83.1892C82.36 84.9638 82.8371 86.3689 83.8143 87.358C84.8113 88.3671 86.1706 88.7882 87.8812 88.9929L88.1188 87.0071C86.5622 86.8208 85.7561 86.4777 85.237 85.9524C84.6983 85.4071 84.3089 84.5077 83.9819 82.8108L82.0181 83.1892Z" fill="white"/>
</svg>
